<svg id="Layer_1" data-name="Layer 1" xmlns="http://www.w3.org/2000/svg" viewBox="0 0 211.74 87.09"><title>arch_eyes_Artboard 4</title><path d="M131.29,49.65a12.5,12.5,0,0,1-4.78-.92c-6-2.44-9.85-7.63-11.13-15a33.89,33.89,0,0,1-.13-10.22,2,2,0,0,1,4,.67c0,.16-2.56,16.25,8.81,20.86,6,2.42,13.14-2.48,22.24-8.7,14.37-9.81,34.06-23.26,60.32-11.24a2,2,0,1,1-1.66,3.64c-24.22-11.08-42.06,1.11-56.41,10.91C144.74,44.93,137.82,49.65,131.29,49.65Z"/><path d="M170.41,87.09a36,36,0,0,1-8.28-1C145.32,82,134.51,75.29,130,66a22.43,22.43,0,0,1-.6-18.19A2,2,0,0,1,133,49.5a18.32,18.32,0,0,0,.61,14.82c4,8.12,13.86,14.12,29.41,17.83,8.37,2,14.81.8,19.16-3.56,13.93-14,4.11-55.37,4-55.79a2,2,0,0,1,3.89-.94c.43,1.79,10.44,44-5.07,59.55C181.28,85.19,176.38,87.09,170.41,87.09Z"/><path d="M144.64,68.07a19.28,19.28,0,0,1-7-1.38c-7.41-2.92-11.59-9.31-9.53-14.56S137.63,45.05,145,48s11.59,9.31,9.52,14.56h0C153.16,66.08,149.29,68.07,144.64,68.07Zm-6.58-17.48c-3,0-5.43,1.06-6.19,3-1.21,3.06,2.12,7.35,7.26,9.37s10.51,1.15,11.71-1.9h0c1.2-3.06-2.13-7.35-7.27-9.38A15.24,15.24,0,0,0,138.06,50.59Zm14.64,11.2h0Z"/><path d="M2,32.4A2,2,0,0,1,.7,28.88c22-18.78,44.57-11.27,61.09-5.78,10.45,3.47,18.71,6.21,23.77,2.24C95.26,17.76,88.37,3,88.3,2.86a2,2,0,0,1,3.61-1.72A33.47,33.47,0,0,1,94.59,11c.81,7.45-1.46,13.5-6.56,17.49-6.76,5.29-16.37,2.1-27.5-1.6-16.49-5.47-37-12.28-57.23,5A2,2,0,0,1,2,32.4Z"/><path d="M48.42,80.61a18.69,18.69,0,0,1-9.21-2.39C20,67.52,18,24.19,18,22.35a2,2,0,0,1,4-.16c0,.43,2,42.92,19.2,52.54,5.38,3,11.9,2.37,19.4-1.85C74.49,65,82.35,56.55,83.94,47.65a18.35,18.35,0,0,0-3.5-14.43,2,2,0,0,1,3-2.61,22.4,22.4,0,0,1,4.42,17.65c-1.77,10.17-10.31,19.62-25.37,28.1C57.5,79.19,52.78,80.61,48.42,80.61Z"/><path d="M70.78,56.85a8.7,8.7,0,0,1-7.15-3.19c-3.43-4.48-1.17-11.78,5.16-16.61a17.74,17.74,0,0,1,9.36-3.78c3.44-.23,6.29.88,8,3.14C89.6,40.89,87.34,48.19,81,53A17.32,17.32,0,0,1,70.78,56.85ZM79,37.24l-.6,0a13.84,13.84,0,0,0-7.2,3c-4.39,3.36-6.41,8.4-4.41,11s7.39,2,11.77-1.38,6.41-8.4,4.42-11h0A4.91,4.91,0,0,0,79,37.24Z"/></svg>